<mxfile host="app.diagrams.net" modified="2024-04-07T23:57:57.146Z" agent="Mozilla/5.0 (Windows NT 10.0; Win64; x64) AppleWebKit/537.36 (KHTML, like Gecko) Chrome/123.0.0.0 Safari/537.36" etag="V2010P7NGvK9l3de5Quc" version="24.2.2" type="google">
  <diagram name="PÃ¡gina-1" id="kyNNvlNXIgBIGgoHtG8m">
    <mxGraphModel grid="1" page="1" gridSize="10" guides="1" tooltips="1" connect="1" arrows="1" fold="1" pageScale="1" pageWidth="827" pageHeight="1169" math="0" shadow="0">
      <root>
        <mxCell id="0" />
        <mxCell id="1" parent="0" />
        <mxCell id="u957ZreWrMzj7vGurl29-1" value="" style="ellipse;html=1;shape=startState;fillColor=#000000;strokeColor=#ff0000;" vertex="1" parent="1">
          <mxGeometry x="180" y="20" width="30" height="30" as="geometry" />
        </mxCell>
        <mxCell id="u957ZreWrMzj7vGurl29-2" value="" style="edgeStyle=orthogonalEdgeStyle;html=1;verticalAlign=bottom;endArrow=open;endSize=8;strokeColor=#ff0000;rounded=0;" edge="1" parent="1" source="u957ZreWrMzj7vGurl29-1">
          <mxGeometry relative="1" as="geometry">
            <mxPoint x="195" y="100" as="targetPoint" />
          </mxGeometry>
        </mxCell>
        <mxCell id="u957ZreWrMzj7vGurl29-3" value="Idle" style="swimlane;fontStyle=1;align=center;verticalAlign=top;childLayout=stackLayout;horizontal=1;startSize=26;horizontalStack=0;resizeParent=1;resizeParentMax=0;resizeLast=0;collapsible=1;marginBottom=0;whiteSpace=wrap;html=1;" vertex="1" parent="1">
          <mxGeometry x="115" y="100" width="160" height="86" as="geometry" />
        </mxCell>
        <mxCell id="u957ZreWrMzj7vGurl29-4" value="DatosClima" style="text;strokeColor=none;fillColor=none;align=center;verticalAlign=top;spacingLeft=4;spacingRight=4;overflow=hidden;rotatable=0;points=[[0,0.5],[1,0.5]];portConstraint=eastwest;whiteSpace=wrap;html=1;" vertex="1" parent="u957ZreWrMzj7vGurl29-3">
          <mxGeometry y="26" width="160" height="26" as="geometry" />
        </mxCell>
        <mxCell id="u957ZreWrMzj7vGurl29-5" value="" style="line;strokeWidth=1;fillColor=none;align=left;verticalAlign=middle;spacingTop=-1;spacingLeft=3;spacingRight=3;rotatable=0;labelPosition=right;points=[];portConstraint=eastwest;strokeColor=inherit;" vertex="1" parent="u957ZreWrMzj7vGurl29-3">
          <mxGeometry y="52" width="160" height="8" as="geometry" />
        </mxCell>
        <mxCell id="u957ZreWrMzj7vGurl29-6" value="Sin datos para mostrar" style="text;strokeColor=none;fillColor=none;align=center;verticalAlign=top;spacingLeft=4;spacingRight=4;overflow=hidden;rotatable=0;points=[[0,0.5],[1,0.5]];portConstraint=eastwest;whiteSpace=wrap;html=1;" vertex="1" parent="u957ZreWrMzj7vGurl29-3">
          <mxGeometry y="60" width="160" height="26" as="geometry" />
        </mxCell>
        <mxCell id="u957ZreWrMzj7vGurl29-7" value="" style="edgeStyle=orthogonalEdgeStyle;html=1;verticalAlign=bottom;endArrow=open;endSize=8;strokeColor=#ff0000;rounded=0;entryX=0.5;entryY=0;entryDx=0;entryDy=0;" edge="1" parent="1" target="u957ZreWrMzj7vGurl29-8">
          <mxGeometry relative="1" as="geometry">
            <mxPoint x="195" y="236" as="targetPoint" />
            <mxPoint x="195" y="186" as="sourcePoint" />
          </mxGeometry>
        </mxCell>
        <mxCell id="u957ZreWrMzj7vGurl29-8" value="Mostrando datos del clima" style="swimlane;fontStyle=1;align=center;verticalAlign=top;childLayout=stackLayout;horizontal=1;startSize=26;horizontalStack=0;resizeParent=1;resizeParentMax=0;resizeLast=0;collapsible=1;marginBottom=0;whiteSpace=wrap;html=1;" vertex="1" parent="1">
          <mxGeometry x="115" y="240" width="160" height="86" as="geometry" />
        </mxCell>
        <mxCell id="u957ZreWrMzj7vGurl29-9" value="DatosClima" style="text;strokeColor=none;fillColor=none;align=center;verticalAlign=top;spacingLeft=4;spacingRight=4;overflow=hidden;rotatable=0;points=[[0,0.5],[1,0.5]];portConstraint=eastwest;whiteSpace=wrap;html=1;" vertex="1" parent="u957ZreWrMzj7vGurl29-8">
          <mxGeometry y="26" width="160" height="26" as="geometry" />
        </mxCell>
        <mxCell id="u957ZreWrMzj7vGurl29-10" value="" style="line;strokeWidth=1;fillColor=none;align=left;verticalAlign=middle;spacingTop=-1;spacingLeft=3;spacingRight=3;rotatable=0;labelPosition=right;points=[];portConstraint=eastwest;strokeColor=inherit;" vertex="1" parent="u957ZreWrMzj7vGurl29-8">
          <mxGeometry y="52" width="160" height="8" as="geometry" />
        </mxCell>
        <mxCell id="u957ZreWrMzj7vGurl29-11" value="mostrar datos del clima" style="text;strokeColor=none;fillColor=none;align=center;verticalAlign=top;spacingLeft=4;spacingRight=4;overflow=hidden;rotatable=0;points=[[0,0.5],[1,0.5]];portConstraint=eastwest;whiteSpace=wrap;html=1;" vertex="1" parent="u957ZreWrMzj7vGurl29-8">
          <mxGeometry y="60" width="160" height="26" as="geometry" />
        </mxCell>
        <mxCell id="u957ZreWrMzj7vGurl29-12" value="" style="edgeStyle=orthogonalEdgeStyle;html=1;verticalAlign=bottom;endArrow=open;endSize=8;strokeColor=#ff0000;rounded=0;" edge="1" parent="1">
          <mxGeometry relative="1" as="geometry">
            <mxPoint x="195" y="376" as="targetPoint" />
            <mxPoint x="195" y="326" as="sourcePoint" />
          </mxGeometry>
        </mxCell>
        <mxCell id="u957ZreWrMzj7vGurl29-18" value="" style="ellipse;html=1;shape=endState;fillColor=#000000;strokeColor=#ff0000;" vertex="1" parent="1">
          <mxGeometry x="180" y="380" width="30" height="30" as="geometry" />
        </mxCell>
        <mxCell id="u957ZreWrMzj7vGurl29-19" value="enviar_datos_clima()" style="text;html=1;align=center;verticalAlign=middle;resizable=0;points=[];autosize=1;strokeColor=none;fillColor=none;" vertex="1" parent="1">
          <mxGeometry x="200" y="200" width="130" height="30" as="geometry" />
        </mxCell>
      </root>
    </mxGraphModel>
  </diagram>
</mxfile>
